<svg width="203" height="40" viewBox="0 0 203 40" fill="none" xmlns="http://www.w3.org/2000/svg">
<path d="M132.184 29.0562V16.5147C132.184 15.9793 131.915 15.7104 131.38 15.7104H127.627C127.12 15.7104 126.825 15.416 126.825 14.9061V11.9046C126.825 11.3692 127.12 11.1003 127.627 11.1003H141.348C141.886 11.1003 142.153 11.3692 142.153 11.9046V14.9061C142.153 15.416 141.886 15.7104 141.348 15.7104H137.598C137.088 15.7104 136.794 15.9793 136.794 16.5147V29.0562C136.794 29.5661 136.525 29.8604 135.99 29.8604H132.988C132.478 29.8604 132.184 29.5661 132.184 29.0562Z" fill="#038642"/>
<path d="M157.723 17.5854V28.9495C157.723 29.5382 157.454 29.8603 156.919 29.8603H153.917C153.407 29.8603 153.113 29.5915 153.113 29.0561V26.7244C153.113 26.189 152.844 25.9201 152.309 25.9201H150.005C149.495 25.9201 149.2 26.189 149.2 26.7244V29.0561C149.2 29.5915 148.932 29.8603 148.396 29.8603H145.395C144.885 29.8603 144.59 29.5382 144.59 28.9495V17.5854C144.59 14.2107 145.128 10.6182 151.157 10.6182C157.187 10.6182 157.723 14.2107 157.723 17.5854ZM153.113 20.4803V17.5854C153.113 16.3014 152.925 15.657 151.157 15.657C149.388 15.657 149.2 16.3014 149.2 17.5854V20.5081C149.2 21.0157 149.495 21.3124 150.005 21.3124H152.309C152.844 21.2846 153.113 21.0157 153.113 20.4803Z" fill="#038642"/>
<path d="M162.037 11.1003H164.985C165.521 11.1003 165.79 11.3692 165.79 11.9046V29.0562C165.79 29.5661 165.521 29.8604 164.985 29.8604H162.037C161.527 29.8604 161.233 29.5661 161.233 29.0562V11.9046C161.233 11.3692 161.527 11.1003 162.037 11.1003Z" fill="#038642"/>
<path d="M0.804268 11.1003H3.80579C4.3157 11.1003 4.61006 11.397 4.61006 11.9046V18.6053C4.61006 19.1152 4.90441 19.4096 5.41432 19.4096H7.98706C8.52246 19.4096 8.79132 19.1152 8.79132 18.6053V11.9046C8.79132 11.397 9.08568 11.1003 9.59328 11.1003H12.5948C13.1325 11.1003 13.3991 11.3692 13.3991 11.9046V29.0562C13.3991 29.5661 13.1325 29.8604 12.5948 29.8604H9.59328C9.08568 29.8604 8.79132 29.5661 8.79132 29.0562V24.8216C8.79132 24.2862 8.52246 24.0173 7.98706 24.0173H5.41432C4.90441 24.0173 4.61006 24.2862 4.61006 24.8216V29.0562C4.61006 29.5661 4.34119 29.8604 3.80579 29.8604H0.804268C0.294358 29.8604 0 29.5661 0 29.0562V11.9046C0 11.3692 0.268863 11.1003 0.804268 11.1003Z" fill="#038642"/>
<path d="M30.0417 17.5854V28.9495C30.0417 29.5382 29.7728 29.8603 29.2374 29.8603H26.2359C25.726 29.8603 25.4316 29.5915 25.4316 29.0561V26.7244C25.4316 26.189 25.1628 25.9201 24.6274 25.9201H22.3235C21.8136 25.9201 21.5192 26.189 21.5192 26.7244V29.0561C21.5192 29.5915 21.2504 29.8603 20.715 29.8603H17.7134C17.2035 29.8603 16.9092 29.5382 16.9092 28.9495V17.5854C16.9092 14.2107 17.4469 10.6182 23.4754 10.6182C29.5063 10.6182 30.0417 14.2107 30.0417 17.5854ZM25.4316 20.4803V17.5854C25.4316 16.3014 25.2439 15.657 23.4754 15.657C21.707 15.657 21.5192 16.3014 21.5192 17.5854V20.5081C21.5192 21.0157 21.8136 21.3124 22.3235 21.3124H24.6274C25.1628 21.2846 25.4316 21.0157 25.4316 20.4803Z" fill="#038642"/>
<path d="M34.3555 11.1003H38.2958C38.75 11.1003 39.0444 11.2881 39.2321 11.7169L42.878 20.6426C42.9846 20.8837 43.2002 20.8304 43.2002 20.5615V11.9046C43.2002 11.3692 43.4945 11.1003 44.0021 11.1003H47.0036C47.5414 11.1003 47.8079 11.3692 47.8079 11.9046V29.0562C47.8079 29.5661 47.5414 29.8604 47.0036 29.8604H43.0657C42.6091 29.8604 42.3148 29.6727 42.127 29.2439L38.4835 20.3205C38.3746 20.0794 38.1613 20.1327 38.1613 20.4016V29.0562C38.1613 29.5661 37.8925 29.8604 37.3571 29.8604H34.3555C33.8456 29.8604 33.5513 29.5661 33.5513 29.0562V11.9046C33.5513 11.3692 33.8456 11.1003 34.3555 11.1003Z" fill="#038642"/>
<path d="M51.1841 17.1311V23.8295C51.1841 25.6003 51.5596 30.3424 57.9126 30.3424C64.2633 30.3424 64.6388 25.6003 64.6388 23.8295V20.2138C64.6388 19.676 64.3699 19.4095 63.8345 19.4095H58.4735C57.9659 19.4095 57.6715 19.676 57.6715 20.2138V22.3577C57.6715 22.8653 57.9659 23.1597 58.4735 23.1597H60.0287C60.0287 24.4738 59.8943 25.7324 57.9126 25.7324C55.9286 25.7324 55.7941 24.4738 55.7941 22.411V18.5519C55.7941 16.4868 55.9286 15.2282 57.9126 15.2282C59.44 15.2282 59.8943 15.9792 60.0009 17.2655C60.0565 17.8288 60.3509 18.0698 60.8863 17.9609L63.9156 17.291C64.3977 17.1844 64.6388 16.8901 64.611 16.408C64.4765 14.3173 63.5401 10.6182 57.9126 10.6182C51.5596 10.6182 51.1841 15.3627 51.1841 17.1311Z" fill="#038642"/>
<path d="M86.1441 11.1003H89.0923C89.6277 11.1003 89.8966 11.3692 89.8966 11.9046V29.0562C89.8966 29.5661 89.6277 29.8604 89.0923 29.8604H86.1441C85.6342 29.8604 85.3398 29.5661 85.3398 29.0562V11.9046C85.3398 11.3692 85.6342 11.1003 86.1441 11.1003Z" fill="#FECE00"/>
<path d="M94.3443 11.1003H105.599C106.135 11.1003 106.404 11.3692 106.404 11.9046V14.9061C106.404 15.416 106.135 15.7104 105.599 15.7104H99.1143C98.6044 15.7104 98.31 15.9793 98.31 16.5147V17.3722C98.31 17.8822 98.6044 18.1765 99.1143 18.1765H103.268C103.803 18.1765 104.072 18.4431 104.072 18.9808V21.9823C104.072 22.4899 103.803 22.7866 103.268 22.7866H99.1143C98.6044 22.7866 98.31 23.0531 98.31 23.5885V24.4461C98.31 24.956 98.6044 25.2504 99.1143 25.2504H105.599C106.135 25.2504 106.404 25.5192 106.404 26.0546V29.0562C106.404 29.5916 106.135 29.8604 105.599 29.8604H94.3443C93.8344 29.8604 93.54 29.5661 93.54 29.0562V11.9046C93.54 11.3692 93.8344 11.1003 94.3443 11.1003Z" fill="#FECE00"/>
<path d="M113.72 29.0562V16.5147C113.72 15.9793 113.451 15.7104 112.915 15.7104H109.163C108.655 15.7104 108.361 15.416 108.361 14.9061V11.9046C108.361 11.3692 108.655 11.1003 109.163 11.1003H122.884C123.422 11.1003 123.688 11.3692 123.688 11.9046V14.9061C123.688 15.416 123.422 15.7104 122.884 15.7104H119.134C118.624 15.7104 118.33 15.9793 118.33 16.5147V29.0562C118.33 29.5661 118.061 29.8604 117.525 29.8604H114.524C114.014 29.8604 113.72 29.5661 113.72 29.0562Z" fill="#FECE00"/>
<path d="M68.2668 9H71.8687C72.4133 9 72.7471 9.27118 72.8676 9.78573L75.5307 21.4071C75.591 21.6782 75.832 21.6782 75.8946 21.4071L78.5578 9.78573C78.6783 9.27118 79.0097 9 79.5544 9H83.1562C83.7913 9 84.0949 9.36157 83.9419 9.99896L79.5243 29.3964C79.4037 29.9087 79.07 30.1822 78.5253 30.1822H72.8977C72.3531 30.1822 72.0193 29.9087 71.8988 29.3964L67.4811 9.99896C67.3304 9.36157 67.6318 9 68.2668 9Z" fill="#FECE00"/>
<path d="M175.789 9H172.401C171.826 9 171.492 9.30131 171.492 9.90625V23.3725C171.492 25.3705 171.916 30.7268 179.09 30.7268C186.261 30.7268 186.685 25.3705 186.685 23.3725V9.90625C186.685 9.30131 186.382 9 185.777 9H182.388C181.813 9 181.479 9.30131 181.479 9.90625V21.7686C181.479 24.1003 181.329 25.5211 179.09 25.5211C176.849 25.5211 176.698 24.1003 176.698 21.7686V9.90625C176.698 9.30131 176.397 9 175.789 9Z" fill="#FECE00"/>
<path d="M189.571 17.1311V23.8295C189.571 25.6003 189.946 30.3424 196.299 30.3424C202.006 30.3424 202.891 26.5112 202.998 24.4738C203.025 24.0729 202.784 23.7762 202.409 23.6974L199.38 23.0275C198.844 22.8931 198.415 23.2408 198.334 23.804C198.174 25.0371 197.773 25.7324 196.299 25.7324C194.315 25.7324 194.181 24.4738 194.181 22.411V18.5519C194.181 16.4868 194.315 15.2282 196.299 15.2282C197.746 15.2282 198.228 15.9259 198.362 17.1033C198.443 17.6665 198.872 18.042 199.433 17.9354L202.409 17.2655C202.784 17.1844 203.025 16.8901 202.998 16.5146C202.891 14.4518 202.006 10.6182 196.299 10.6182C189.946 10.6182 189.571 15.3627 189.571 17.1311Z" fill="#FECE00"/>
</svg>
